<svg width="41" height="40" viewBox="0 0 41 40" fill="none" xmlns="http://www.w3.org/2000/svg">
<path fill-rule="evenodd" clip-rule="evenodd" d="M20.0784 40C31.1674 40 40.1569 31.0457 40.1569 20C40.1569 8.9543 31.1674 0 20.0784 0C8.98942 0 0 8.9543 0 20C0 31.0457 8.98942 40 20.0784 40Z" fill="white"/>
<path fill-rule="evenodd" clip-rule="evenodd" d="M22.0981 4.9739C22.3085 5.71074 22.3085 6.51776 22.0981 7.2546C22.028 7.46513 21.8877 7.64057 21.6422 7.71074C20.9058 7.92127 20.0992 7.92127 19.3628 7.71074C19.1523 7.64057 18.977 7.50021 18.9069 7.2546C18.6965 6.51776 18.6965 5.71074 18.9069 4.9739C18.977 4.76337 19.1173 4.58793 19.3628 4.51776C20.0992 4.30723 20.9058 4.30723 21.6422 4.51776C21.8877 4.58793 22.028 4.76337 22.0981 4.9739ZM8.35125 10.9739C9.08769 11.1493 9.78906 11.5704 10.28 12.1318C10.4203 12.3072 10.4904 12.5178 10.4203 12.7283C10.245 13.4651 9.82413 14.1669 9.26303 14.6581C9.08769 14.7985 8.87728 14.8686 8.66687 14.7985C7.93043 14.623 7.22906 14.202 6.7381 13.6406C6.59783 13.4651 6.52769 13.2546 6.59783 13.0441C6.77317 12.3072 7.19399 11.6055 7.75509 11.1142C7.89536 10.9739 8.14084 10.9388 8.35125 10.9739ZM14.4181 6.16688C14.9792 6.6932 15.365 7.39495 15.5403 8.13179C15.5754 8.34232 15.5403 8.58793 15.365 8.72828C14.8389 9.28969 14.1376 9.67565 13.4011 9.85109C13.1907 9.88618 12.9452 9.85109 12.805 9.67565C12.2439 9.14934 11.8581 8.44758 11.6828 7.71074C11.6477 7.50021 11.6828 7.2546 11.8581 7.11425C12.3841 6.55285 13.0855 6.16688 13.8219 5.99144C14.0674 5.95635 14.2778 6.02653 14.4181 6.16688ZM34.3019 13.6757C33.7759 14.2371 33.1096 14.6581 32.3732 14.8335C32.1628 14.9037 31.9173 14.8335 31.777 14.6932C31.2159 14.1669 30.7951 13.5002 30.6197 12.7634C30.5496 12.5528 30.6197 12.3072 30.76 12.1669C31.286 11.6055 31.9523 11.1844 32.6888 11.009C32.8992 10.9388 33.1447 11.009 33.285 11.1493C33.846 11.6757 34.2669 12.3423 34.4422 13.0792C34.5123 13.2897 34.4773 13.5002 34.3019 13.6757ZM29.3573 7.71074C29.1819 8.44758 28.7962 9.14934 28.2351 9.67565C28.0597 9.816 27.8493 9.88618 27.6389 9.85109C26.9025 9.67565 26.2011 9.28969 25.6751 8.72828C25.5348 8.55285 25.4647 8.34232 25.4997 8.13179C25.6751 7.39495 26.0608 6.6932 26.6219 6.16688C26.7973 6.02653 27.0077 5.95635 27.2181 5.99144C27.9545 6.16688 28.6559 6.55285 29.1819 7.11425C29.3222 7.28969 29.3923 7.50021 29.3573 7.71074Z" fill="#EC1C24"/>
<path fill-rule="evenodd" clip-rule="evenodd" d="M21.3613 23.9564C22.6589 21.9915 23.5706 19.7459 23.8863 17.2897C23.8863 17.1845 23.9564 17.1143 24.0265 17.0792C24.0967 17.0441 24.2019 17.0441 24.272 17.1143C25.1838 17.816 26.2008 18.3424 27.323 18.6932C27.4632 18.7283 27.5684 18.8687 27.5334 19.0441C26.9723 21.8511 25.815 24.4476 24.1668 26.6932C24.1317 26.7634 24.0265 26.7985 23.9564 26.8336C23.8512 26.8336 23.781 26.8336 23.7109 26.7634C22.8342 26.0967 22.0627 25.2897 21.3613 24.4476C21.2912 24.3073 21.2561 24.1318 21.3613 23.9564Z" fill="#EC1C24"/>
<path fill-rule="evenodd" clip-rule="evenodd" d="M20.2749 30.3774C16.8382 27.5353 14.3834 23.5704 13.4717 19.0441C13.4366 18.9038 13.5418 18.7634 13.6821 18.6932C14.8043 18.3424 15.8212 17.816 16.733 17.1143C16.8032 17.0441 16.9084 17.0441 16.9785 17.0792C17.0486 17.1143 17.1188 17.1845 17.1188 17.2897C17.6799 21.4652 19.8892 25.1494 23.0454 27.6055C23.1155 27.6757 23.1506 27.7459 23.1506 27.816C23.1506 27.9213 23.1506 27.9915 23.0804 28.0617C22.344 28.9038 21.5725 29.6757 20.7308 30.3774C20.6256 30.5178 20.4152 30.5178 20.2749 30.3774Z" fill="#EC1C24"/>
<path fill-rule="evenodd" clip-rule="evenodd" d="M34.6527 20.5178C35.6346 19.9564 36.1606 18.8336 35.9853 17.7458C35.9853 17.6757 35.9151 17.6055 35.845 17.5704C35.7749 17.5353 35.6697 17.5353 35.5995 17.6055C33.6357 18.8687 31.2861 19.395 28.9716 19.0792C28.8313 19.0441 28.691 19.1494 28.656 19.3248C28.3053 21.0441 27.7442 22.6932 27.0077 24.2371C26.9727 24.3073 26.9727 24.4125 27.0077 24.4827C27.0428 24.5529 27.113 24.623 27.1831 24.6581C29.0417 25.4651 31.0757 25.9564 33.1798 25.9915C33.3201 25.9915 33.4603 25.9213 33.5305 25.7809C34.1968 24.1318 34.6176 22.3774 34.6527 20.5178Z" fill="#EC1C24"/>
<path fill-rule="evenodd" clip-rule="evenodd" d="M23.4657 16.3776C24.2022 16.2723 30.9003 15.0793 28.5156 13.1846C26.5167 11.5706 24.2022 10.3425 21.6422 9.60565C20.8707 9.39512 20.1342 9.39512 19.3627 9.60565C16.8378 10.3425 14.4882 11.5706 12.4893 13.1846C10.1046 15.1144 16.8027 16.2723 17.5392 16.3776C18.0652 17.8162 19.1523 19.7811 20.4849 19.7811C21.8526 19.7811 22.9748 17.8162 23.4657 16.3776Z" fill="#EC1C24"/>
<path fill-rule="evenodd" clip-rule="evenodd" d="M7.5445 25.7458C6.84313 24.1317 6.42231 22.3423 6.38724 20.4826C5.40532 19.9212 4.91436 18.7984 5.0897 17.7107C5.0897 17.6405 5.15984 17.5703 5.22998 17.5353C5.30012 17.5002 5.40532 17.5002 5.47546 17.5703C7.43929 18.8686 9.78888 19.3598 12.1034 19.044C12.2437 19.0089 12.384 19.1142 12.419 19.2896C12.7697 21.0089 13.3308 22.6581 14.0672 24.2019C14.1023 24.2721 14.1023 24.3774 14.0672 24.4475C14.0322 24.5177 13.962 24.5879 13.8919 24.623C12.0333 25.43 9.99929 25.9212 7.89518 25.9563C7.75491 25.9914 7.61464 25.8861 7.5445 25.7458Z" fill="#EC1C24"/>
<path fill-rule="evenodd" clip-rule="evenodd" d="M27.253 34.237C25.2191 35.2195 22.9396 35.7458 20.555 35.7458C20.1692 35.7458 19.7835 35.7458 19.3977 35.7107C19.3276 35.7107 19.2574 35.6756 19.1873 35.6054C19.1522 35.5353 19.1172 35.4651 19.1522 35.3949C20.1692 31.4651 23.7462 28.5879 27.9895 28.5879C29.778 28.5879 30.6547 29.43 30.6547 30.5528C30.6547 31.9563 29.5325 33.1493 27.253 34.237Z" fill="#EC1C24"/>
<path fill-rule="evenodd" clip-rule="evenodd" d="M13.8224 34.2369C15.0147 34.7983 16.3122 35.2545 17.6799 35.5001C17.8553 35.5352 17.9955 35.4299 18.0306 35.2545C18.3462 33.9913 18.9073 32.7983 19.6437 31.7457C19.7489 31.6054 19.7489 31.3948 19.6087 31.2896C17.9605 29.6054 15.6459 28.5527 13.0859 28.5527C11.2974 28.5527 10.4207 29.3948 10.4207 30.5176C10.3857 31.9562 11.5079 33.1492 13.8224 34.2369Z" fill="#EC1C24"/>
</svg>
