<svg width="46" height="45" viewBox="0 0 46 45" fill="none" xmlns="http://www.w3.org/2000/svg">
<path fill-rule="evenodd" clip-rule="evenodd" d="M22.8203 44.9835C35.0979 44.9835 45.0509 35.0695 45.0509 22.8399C45.0509 10.6102 35.0979 0.696167 22.8203 0.696167C10.5428 0.696167 0.589844 10.6102 0.589844 22.8399C0.589844 35.0695 10.5428 44.9835 22.8203 44.9835Z" fill="#EC1C24"/>
<path fill-rule="evenodd" clip-rule="evenodd" d="M25.0564 6.20323C25.2893 7.01905 25.2893 7.91257 25.0564 8.72838C24.9788 8.96148 24.8234 9.15572 24.5516 9.23342C23.7363 9.46651 22.8432 9.46651 22.0279 9.23342C21.7948 9.15572 21.6007 9.00032 21.5231 8.72838C21.2902 7.91257 21.2902 7.01905 21.5231 6.20323C21.6007 5.97013 21.7561 5.77589 22.0279 5.6982C22.8432 5.4651 23.7363 5.4651 24.5516 5.6982C24.8234 5.77589 24.9788 5.97013 25.0564 6.20323ZM9.83608 12.8463C10.6515 13.0405 11.428 13.5068 11.9716 14.1283C12.1269 14.3225 12.2045 14.5557 12.1269 14.7888C11.9328 15.6046 11.4668 16.3816 10.8456 16.9254C10.6515 17.0809 10.4185 17.1585 10.1855 17.0809C9.37016 16.8866 8.59361 16.4204 8.05003 15.7989C7.89472 15.6046 7.81707 15.3715 7.89472 15.1384C8.08886 14.3225 8.55478 13.5456 9.17602 13.0017C9.33133 12.8463 9.60312 12.8075 9.83608 12.8463ZM16.5532 7.52408C17.1744 8.10681 17.6016 8.88378 17.7957 9.6996C17.8345 9.93269 17.7957 10.2046 17.6016 10.36C17.0191 10.9816 16.2426 11.4089 15.4272 11.6032C15.1942 11.642 14.9224 11.6032 14.7672 11.4089C14.146 10.8262 13.7188 10.0492 13.5247 9.23342C13.4859 9.00032 13.5247 8.72838 13.7188 8.57299C14.3012 7.95142 15.0778 7.52408 15.8931 7.32983C16.1649 7.29098 16.3979 7.36868 16.5532 7.52408ZM38.5682 15.8377C37.9859 16.4593 37.2481 16.9254 36.4328 17.1196C36.1999 17.1973 35.928 17.1196 35.7727 16.9643C35.1515 16.3816 34.6856 15.6434 34.4914 14.8276C34.4137 14.5945 34.4914 14.3225 34.6467 14.1672C35.2291 13.5456 35.9668 13.0794 36.7822 12.8852C37.0152 12.8075 37.287 12.8852 37.4423 13.0405C38.0635 13.6234 38.5295 14.3614 38.7236 15.1773C38.8012 15.4104 38.7624 15.6434 38.5682 15.8377ZM33.0936 9.23342C32.8994 10.0492 32.4724 10.8262 31.8512 11.4089C31.657 11.5643 31.424 11.642 31.1911 11.6032C30.3757 11.4089 29.5992 10.9816 29.0168 10.36C28.8614 10.1658 28.7838 9.93269 28.8226 9.6996C29.0168 8.88378 29.4438 8.10681 30.0651 7.52408C30.2593 7.36868 30.4922 7.29098 30.7252 7.32983C31.5405 7.52408 32.3171 7.95142 32.8994 8.57299C33.0548 8.76724 33.1324 9.00032 33.0936 9.23342Z" fill="#FAFAF9"/>
<path fill-rule="evenodd" clip-rule="evenodd" d="M24.2405 27.2204C25.6772 25.0449 26.6866 22.5586 27.0361 19.8391C27.0361 19.7226 27.1137 19.6449 27.1914 19.606C27.2691 19.5672 27.3856 19.5672 27.4632 19.6449C28.4727 20.4218 29.5987 21.0046 30.8412 21.393C30.9964 21.4319 31.1129 21.5873 31.0741 21.7815C30.4529 24.8894 29.1716 27.7642 27.3467 30.2505C27.3078 30.3282 27.1914 30.3671 27.1137 30.4059C26.9973 30.4059 26.9195 30.4059 26.8419 30.3282C25.8713 29.5901 25.0171 28.6966 24.2405 27.7642C24.1629 27.6089 24.124 27.4146 24.2405 27.2204Z" fill="#FAFAF9"/>
<path fill-rule="evenodd" clip-rule="evenodd" d="M23.037 34.3296C19.2319 31.1829 16.514 26.793 15.5046 21.7815C15.4657 21.6262 15.5822 21.4708 15.7376 21.393C16.98 21.0046 18.1059 20.4218 19.1155 19.6449C19.1932 19.5672 19.3097 19.5672 19.3873 19.606C19.4649 19.6449 19.5426 19.7226 19.5426 19.8391C20.1639 24.4621 22.61 28.5412 26.1045 31.2606C26.1821 31.3383 26.2209 31.416 26.2209 31.4936C26.2209 31.6102 26.2209 31.688 26.1432 31.7657C25.3279 32.698 24.4737 33.5527 23.5418 34.3296C23.4253 34.485 23.1923 34.485 23.037 34.3296Z" fill="#FAFAF9"/>
<path fill-rule="evenodd" clip-rule="evenodd" d="M38.9564 23.4132C40.0435 22.7916 40.6259 21.5485 40.4318 20.3441C40.4318 20.2664 40.3541 20.1887 40.2765 20.1499C40.1989 20.111 40.0824 20.111 40.0047 20.1887C37.8304 21.5873 35.2289 22.17 32.6664 21.8204C32.511 21.7815 32.3557 21.8981 32.3169 22.0923C31.9286 23.9959 31.3074 25.8217 30.492 27.5311C30.4532 27.6088 30.4532 27.7253 30.492 27.803C30.5308 27.8808 30.6085 27.9584 30.6862 27.9972C32.744 28.8907 34.996 29.4347 37.3256 29.4736C37.4809 29.4736 37.6362 29.3958 37.7139 29.2404C38.4516 27.4145 38.9175 25.4721 38.9564 23.4132Z" fill="#FAFAF9"/>
<path fill-rule="evenodd" clip-rule="evenodd" d="M26.571 18.8292C27.3864 18.7126 34.8025 17.3918 32.1622 15.294C29.949 13.507 27.3864 12.1473 24.552 11.3314C23.6978 11.0983 22.8824 11.0983 22.0282 11.3314C19.2327 12.1473 16.6312 13.507 14.4181 15.294C11.7778 17.4306 19.1938 18.7126 20.0093 18.8292C20.5916 20.422 21.7953 22.5975 23.2707 22.5975C24.785 22.5975 26.0275 20.422 26.571 18.8292Z" fill="#FAFAF9"/>
<path fill-rule="evenodd" clip-rule="evenodd" d="M8.94321 29.2015C8.16666 27.4144 7.70074 25.4332 7.66191 23.3742C6.57474 22.7526 6.03116 21.5095 6.22529 20.3052C6.22529 20.2275 6.30295 20.1497 6.38061 20.111C6.45827 20.0721 6.57474 20.0721 6.6524 20.1497C8.82672 21.5872 11.4282 22.131 13.9908 21.7814C14.1461 21.7425 14.3014 21.8591 14.3402 22.0533C14.7285 23.9569 15.3497 25.7829 16.165 27.4921C16.2039 27.5699 16.2039 27.6864 16.165 27.7641C16.1263 27.8418 16.0486 27.9195 15.9709 27.9584C13.9131 28.8519 11.6611 29.3957 9.33148 29.4346C9.17617 29.4734 9.02087 29.3569 8.94321 29.2015Z" fill="#FAFAF9"/>
<path fill-rule="evenodd" clip-rule="evenodd" d="M30.7634 38.6029C28.5115 39.6907 25.9877 40.2734 23.3475 40.2734C22.9204 40.2734 22.4933 40.2734 22.0662 40.2345C21.9886 40.2345 21.9108 40.1957 21.8332 40.1179C21.7944 40.0403 21.7556 39.9626 21.7944 39.8849C22.9204 35.5339 26.8808 32.3483 31.5789 32.3483C33.5591 32.3483 34.5298 33.2806 34.5298 34.5238C34.5298 36.0777 33.2873 37.3986 30.7634 38.6029Z" fill="#FAFAF9"/>
<path fill-rule="evenodd" clip-rule="evenodd" d="M15.8932 38.6028C17.2133 39.2244 18.6498 39.7295 20.1641 40.0014C20.3583 40.0402 20.5136 39.9237 20.5524 39.7295C20.9018 38.3309 21.5231 37.01 22.3384 35.8446C22.4549 35.6892 22.4549 35.4561 22.2997 35.3396C20.4748 33.4749 17.9121 32.3093 15.0777 32.3093C13.0975 32.3093 12.1269 33.2417 12.1269 34.4848C12.0881 36.0776 13.3306 37.3985 15.8932 38.6028Z" fill="#FAFAF9"/>
</svg>
