<svg width="611" height="611" viewBox="0 0 611 611" fill="none" xmlns="http://www.w3.org/2000/svg">
<path fill-rule="evenodd" clip-rule="evenodd" d="M610.651 305.654C610.651 474.101 474.098 610.654 305.651 610.654C137.205 610.654 0.651367 474.101 0.651367 305.654C0.651367 137.207 137.205 0.653809 305.651 0.653809C474.098 0.653809 610.651 137.207 610.651 305.654ZM305.651 595.654C465.814 595.654 595.651 465.816 595.651 305.654C595.651 145.491 465.814 15.6538 305.651 15.6538C145.489 15.6538 15.6514 145.491 15.6514 305.654C15.6514 465.816 145.489 595.654 305.651 595.654Z" fill="white"/>
<path fill-rule="evenodd" clip-rule="evenodd" d="M610.651 305.654C610.651 474.101 474.098 610.654 305.651 610.654C137.205 610.654 0.651367 474.101 0.651367 305.654C0.651367 137.207 137.205 0.653809 305.651 0.653809C474.098 0.653809 610.651 137.207 610.651 305.654ZM305.651 595.654C465.814 595.654 595.651 465.816 595.651 305.654C595.651 145.491 465.814 15.6538 305.651 15.6538C145.489 15.6538 15.6514 145.491 15.6514 305.654C15.6514 465.816 145.489 595.654 305.651 595.654Z" fill="url(#paint0_linear_3029_85)"/>
<defs>
<linearGradient id="paint0_linear_3029_85" x1="486.651" y1="72.6538" x2="244.651" y2="355.654" gradientUnits="userSpaceOnUse">
<stop stop-color="#FFEEE4"/>
<stop offset="1" stop-color="#EC1C24"/>
</linearGradient>
</defs>
</svg>
