<svg width="62" height="61" viewBox="0 0 62 61" fill="none" xmlns="http://www.w3.org/2000/svg">
<path d="M42.6504 21C42.6504 27.6274 37.2778 33 30.6504 33C24.023 33 18.6504 27.6274 18.6504 21C18.6504 14.3726 24.023 9 30.6504 9C37.2778 9 42.6504 14.3726 42.6504 21Z" fill="#EC1C24"/>
<path d="M31.1504 0C19.3195 0 9.70508 9.61465 9.70508 21.4453C9.70508 25.4484 10.8133 29.3445 12.922 32.7042L29.6966 60.1559C29.9828 60.6205 30.4117 60.9066 30.9122 60.9781C31.5911 61.0852 32.342 60.7994 32.7351 60.1203L49.5577 32.4182C51.5591 29.13 52.5957 25.3056 52.5957 21.4453C52.5957 9.61465 42.9813 0 31.1504 0ZM31.1504 32.168C25.1459 32.168 20.4277 27.307 20.4277 21.4453C20.4277 15.5477 25.2528 10.7227 31.1504 10.7227C37.048 10.7227 41.873 15.5477 41.873 21.4453C41.873 27.2713 37.2264 32.168 31.1504 32.168Z" fill="#EC1C24"/>
<path d="M31.1504 0V10.7227C37.048 10.7227 41.873 15.5477 41.873 21.4453C41.873 27.2713 37.2264 32.168 31.1504 32.168V60.9989C31.7603 61.0131 32.3874 60.7207 32.735 60.1203L49.5576 32.4182C51.5591 29.13 52.5957 25.3056 52.5957 21.4453C52.5957 9.61465 42.9813 0 31.1504 0Z" fill="#EC1C24"/>
</svg>
