<svg width="299" height="279" viewBox="0 0 299 279" fill="none" xmlns="http://www.w3.org/2000/svg">
<g filter="url(#filter0_d_3029_86)">
<path fill-rule="evenodd" clip-rule="evenodd" d="M107.185 261.404L10.4294 37.8864L19.315 33.8023C102.268 -4.3264 198.07 -2.60568 279.601 38.4771L288.32 42.8707L183.087 264.757L174.095 260.57L174.09 260.568L174.086 260.565L174.079 260.562C174.059 260.553 174.023 260.537 173.97 260.513C173.865 260.465 173.695 260.389 173.465 260.288C173.004 260.085 172.306 259.785 171.412 259.42C169.619 258.688 167.067 257.706 164.082 256.728C157.917 254.708 150.697 252.973 144.648 253C138.7 253.026 131.61 254.316 125.672 255.746C122.775 256.443 120.291 257.139 118.542 257.658C117.669 257.917 116.984 258.13 116.529 258.275C116.301 258.348 116.131 258.403 116.024 258.438L115.91 258.475L115.895 258.48L115.893 258.481L115.892 258.481L115.89 258.482L107.185 261.404ZM118.393 236.95C119.218 236.736 120.087 236.519 120.99 236.301C127.446 234.747 136.302 233.036 144.561 233C153.816 232.96 163.448 235.475 170.308 237.722C171.351 238.063 172.348 238.405 173.291 238.74L261.809 52.0976C190.635 19.2872 108.929 17.8175 36.621 48.0467L118.393 236.95Z" fill="white"/>
<path fill-rule="evenodd" clip-rule="evenodd" d="M107.185 261.404L10.4294 37.8864L19.315 33.8023C102.268 -4.3264 198.07 -2.60568 279.601 38.4771L288.32 42.8707L183.087 264.757L174.095 260.57L174.09 260.568L174.086 260.565L174.079 260.562C174.059 260.553 174.023 260.537 173.97 260.513C173.865 260.465 173.695 260.389 173.465 260.288C173.004 260.085 172.306 259.785 171.412 259.42C169.619 258.688 167.067 257.706 164.082 256.728C157.917 254.708 150.697 252.973 144.648 253C138.7 253.026 131.61 254.316 125.672 255.746C122.775 256.443 120.291 257.139 118.542 257.658C117.669 257.917 116.984 258.13 116.529 258.275C116.301 258.348 116.131 258.403 116.024 258.438L115.91 258.475L115.895 258.48L115.893 258.481L115.892 258.481L115.89 258.482L107.185 261.404ZM118.393 236.95C119.218 236.736 120.087 236.519 120.99 236.301C127.446 234.747 136.302 233.036 144.561 233C153.816 232.96 163.448 235.475 170.308 237.722C171.351 238.063 172.348 238.405 173.291 238.74L261.809 52.0976C190.635 19.2872 108.929 17.8175 36.621 48.0467L118.393 236.95Z" fill="url(#paint0_linear_3029_86)"/>
</g>
<defs>
<filter id="filter0_d_3029_86" x="0.429688" y="0.386963" width="297.891" height="278.37" filterUnits="userSpaceOnUse" color-interpolation-filters="sRGB">
<feFlood flood-opacity="0" result="BackgroundImageFix"/>
<feColorMatrix in="SourceAlpha" type="matrix" values="0 0 0 0 0 0 0 0 0 0 0 0 0 0 0 0 0 0 127 0" result="hardAlpha"/>
<feOffset dy="4"/>
<feGaussianBlur stdDeviation="5"/>
<feColorMatrix type="matrix" values="0 0 0 0 0.105882 0 0 0 0 0.113725 0 0 0 0 0.129412 0 0 0 0.5 0"/>
<feBlend mode="normal" in2="BackgroundImageFix" result="effect1_dropShadow_3029_86"/>
<feBlend mode="normal" in="SourceGraphic" in2="effect1_dropShadow_3029_86" result="shape"/>
</filter>
<linearGradient id="paint0_linear_3029_86" x1="151.104" y1="241.5" x2="142.088" y2="36.2035" gradientUnits="userSpaceOnUse">
<stop stop-color="white"/>
<stop offset="1" stop-color="#EC1C24"/>
</linearGradient>
</defs>
</svg>
